<svg width="135" height="43" viewBox="0 0 135 43" fill="none" xmlns="http://www.w3.org/2000/svg">
    <path d="M19.9056 24.84C19.9056 25.5333 20.2523 25.88 20.9456 25.88C21.6656 25.88 22.2656 25.7467 22.7456 25.48L22.5456 30C21.2656 31.04 19.8256 31.56 18.2256 31.56C15.2923 31.56 13.6656 30.4933 13.3456 28.36C12.0123 30.4933 10.0523 31.56 7.46563 31.56C3.09229 31.56 0.905625 29.68 0.905625 25.92C0.905625 25.28 0.972292 24.5733 1.10563 23.8L1.94563 19.12C2.37229 16.72 3.34563 14.8133 4.86563 13.4C6.41229 11.96 8.41229 11.24 10.8656 11.24C13.3456 11.24 15.0256 11.8133 15.9056 12.96L16.1056 11.76H22.1856L19.9456 24.36C19.919 24.52 19.9056 24.68 19.9056 24.84ZM8.06563 22.92C8.01229 23.16 7.98563 23.4933 7.98563 23.92C7.98563 24.3467 8.18563 24.7733 8.58563 25.2C8.98563 25.6 9.65229 25.8 10.5856 25.8C11.5456 25.8 12.3723 25.4267 13.0656 24.68L14.2656 17.96C13.9723 17.2933 13.279 16.96 12.1856 16.96C10.1323 16.96 8.93229 17.9467 8.58563 19.92L8.06563 22.92ZM32.6481 24.84C32.6481 25.5333 32.9948 25.88 33.6881 25.88C34.4081 25.88 35.0081 25.7467 35.4881 25.48L35.2881 30C34.0081 31.04 32.5681 31.56 30.9681 31.56C28.5415 31.56 26.9681 31 26.2481 29.88C25.7948 29.16 25.5681 28.3733 25.5681 27.52C25.5681 26.6667 25.6215 25.92 25.7281 25.28L30.0881 0.639997H36.8881L32.6881 24.36C32.6615 24.52 32.6481 24.68 32.6481 24.84ZM51.8616 11.24C54.5816 11.24 56.4616 11.96 57.5016 13.4C58.2482 14.3867 58.6216 15.64 58.6216 17.16C58.6216 17.7733 58.5549 18.4267 58.4216 19.12L57.6216 23.8C57.1682 26.3333 56.1949 28.2667 54.7016 29.6C53.2082 30.9067 51.3416 31.56 49.1016 31.56C46.8616 31.56 45.3016 30.96 44.4216 29.76L42.2616 42.12H35.4616L40.8216 11.76H46.9816L46.7816 12.84C48.0349 11.7733 49.7282 11.24 51.8616 11.24ZM47.7016 25.8C48.4482 25.8 49.1416 25.56 49.7816 25.08C50.4216 24.6 50.8216 23.88 50.9816 22.92L51.5016 19.92C51.5549 19.6533 51.5816 19.32 51.5816 18.92C51.5816 18.52 51.4082 18.0933 51.0616 17.64C50.7149 17.1867 50.1149 16.96 49.2616 16.96C47.8749 16.96 46.9682 17.2933 46.5416 17.96L45.3416 24.68C45.7149 25.4267 46.5016 25.8 47.7016 25.8ZM68.5484 22.8C68.5484 24.64 69.8684 25.56 72.5084 25.56C75.1751 25.56 76.5084 24.7333 76.5084 23.08C76.5084 22.2 76.0551 21.48 75.1484 20.92C74.2418 20.36 73.1351 19.8933 71.8284 19.52C70.5484 19.1467 69.2551 18.72 67.9484 18.24C66.6684 17.7333 65.5751 16.96 64.6684 15.92C63.7618 14.8533 63.3084 13.5333 63.3084 11.96C63.3084 5.26666 67.6151 1.92 76.2284 1.92C79.3751 1.92 81.7484 2.52 83.3484 3.72C84.9751 4.89333 85.7884 6.53333 85.7884 8.64C85.7884 9.41333 85.6818 10.16 85.4684 10.88C85.2818 11.5733 85.0818 12.0667 84.8684 12.36L84.5484 12.84H77.4684C78.0551 12.2267 78.3484 11.4533 78.3484 10.52C78.3484 8.78667 77.2151 7.92 74.9484 7.92C72.0951 7.92 70.6684 8.82667 70.6684 10.64C70.6684 11.5467 71.1218 12.2667 72.0284 12.8C72.9351 13.3333 74.0284 13.76 75.3084 14.08C76.6151 14.3733 77.9218 14.7467 79.2284 15.2C80.5351 15.6533 81.6418 16.4133 82.5484 17.48C83.4551 18.52 83.9084 19.88 83.9084 21.56C83.9084 24.9467 82.8951 27.4667 80.8684 29.12C78.8418 30.7467 75.7218 31.56 71.5084 31.56C67.2951 31.56 64.4151 30.8133 62.8684 29.32C61.7218 28.2 61.1484 26.6533 61.1484 24.68C61.1484 23.9333 61.2284 23.12 61.3884 22.24L61.5084 21.6H68.7084L68.6284 22.08C68.5751 22.3467 68.5484 22.5867 68.5484 22.8ZM95.4059 25.88C96.0193 25.88 96.5659 25.7467 97.0459 25.48L96.8459 30C95.5926 31.04 94.1659 31.56 92.5659 31.56C90.1393 31.56 88.5659 31 87.8459 29.88C87.3659 29.1333 87.1259 28.3467 87.1259 27.52C87.1259 26.6667 87.1793 25.92 87.2859 25.28L89.6859 11.76H96.4859L94.2459 24.36C94.2193 24.52 94.2059 24.6667 94.2059 24.8C94.2059 25.52 94.6059 25.88 95.4059 25.88ZM90.4859 5.24C90.4859 3.53333 90.8593 2.29333 91.6059 1.52C92.3793 0.719999 93.5659 0.319999 95.1659 0.319999C97.4059 0.319999 98.5259 1.30667 98.5259 3.28C98.5259 4.96 98.1393 6.18667 97.3659 6.96C96.6193 7.73333 95.4326 8.12 93.8059 8.12C91.5926 8.12 90.4859 7.16 90.4859 5.24ZM132.625 25.88C133.238 25.88 133.785 25.7467 134.265 25.48L134.065 30C132.812 31.04 131.385 31.56 129.785 31.56C126.158 31.56 124.345 30.04 124.345 27C124.345 26.4667 124.398 25.8933 124.505 25.28L125.345 20.36C125.425 19.88 125.465 19.4 125.465 18.92C125.465 17.64 124.758 17 123.345 17C121.958 17 120.865 17.5467 120.065 18.64L117.905 31H111.105L112.985 20.36C113.065 19.88 113.105 19.4 113.105 18.92C113.105 17.64 112.385 17 110.945 17C109.798 17 108.812 17.44 107.985 18.32L105.745 31H98.945L102.345 11.76H108.665L108.225 14.16C109.825 12.1867 111.852 11.2 114.305 11.2C117.772 11.2 119.745 12.3467 120.225 14.64C121.825 12.3467 123.958 11.2 126.625 11.2C129.318 11.2 131.065 11.8 131.865 13C132.398 13.8267 132.665 14.7333 132.665 15.72C132.665 16.7067 132.598 17.6 132.465 18.4L131.465 24.36C131.438 24.52 131.425 24.6667 131.425 24.8C131.425 25.52 131.825 25.88 132.625 25.88Z"
          fill="#ffffff"/>
</svg>
